<svg xmlns="http://www.w3.org/2000/svg" viewBox="0 0 56.67 81.59"><defs><style>.a{fill:#fff;}</style></defs><title>Asset 3</title><path class="a" d="M50.24,35.06a6.41,6.41,0,0,0-10.88-4.53,6.42,6.42,0,0,0-10.83-4V13.22a6.43,6.43,0,1,0-12.85,0l-.1,32.53c-2.36-5-6.58-12.1-11.25-12.1a4.19,4.19,0,0,0-3.68,1.6,4.37,4.37,0,0,0-.33,4l.22.62C6,55.16,7.44,60.18,7.71,61.69h0a24.71,24.71,0,0,0,49-4.83V41.48A6.44,6.44,0,0,0,50.24,35.06ZM32,79.59A22.74,22.74,0,0,1,9.68,61.32h0C9.25,59,6.81,51.54,2.43,39.18l-.22-.62a2.41,2.41,0,0,1,.07-2.16,2.51,2.51,0,0,1,2.05-.75c4.55,0,9.7,11,11.3,15.27v0a.6.6,0,0,0,.14.21.75.75,0,0,0,.07.12,1,1,0,0,0,.17.12,1.1,1.1,0,0,0,.14.09.47.47,0,0,0,.16,0,1,1,0,0,0,.22,0h0a.58.58,0,0,0,.18,0,1,1,0,0,0,.17,0h0a.92.92,0,0,0,.21-.13l.12-.08a1.53,1.53,0,0,0,.11-.16.91.91,0,0,0,.11-.16.58.58,0,0,0,0-.14,1,1,0,0,0,0-.24v0l.11-37.35a4.43,4.43,0,1,1,8.85,0V41.73a1,1,0,0,0,2,0V31.15a4.43,4.43,0,0,1,8.86,0V43.57a1,1,0,1,0,2,0V35.15a4.43,4.43,0,0,1,8.86,0V46.82a1,1,0,0,0,2,0V37.06a4.43,4.43,0,0,1,4.42,4.42v15.4A22.74,22.74,0,0,1,32,79.59Z"/><path class="a" d="M3.85,5.24a1,1,0,0,0,1.07,1.7A32.19,32.19,0,0,1,37.19,5.78l-2.4.69a1,1,0,0,0,.28,2,1,1,0,0,0,.28,0L40,7.05h0l0,0a1,1,0,0,0,.28-.14l0,0v0a.87.87,0,0,0,.2-.23s0,0,0,0a.83.83,0,0,0,.08-.22.88.88,0,0,0,.05-.15s0,0,0,0,0-.11,0-.16a1.49,1.49,0,0,0,0-.21v0L39.33,1.17a1,1,0,1,0-1.92.55L38.06,4A34.21,34.21,0,0,0,3.85,5.24Z"/><path class="a" d="M35.28,2.91a1,1,0,0,1,.5,1.31.89.89,0,0,1-1.22.51A28.09,28.09,0,0,0,4.77,8.27l2.3.33a1,1,0,0,1,.82,1.13.93.93,0,0,1-.77.85.57.57,0,0,1-.26,0L2.39,9.93h0a1,1,0,0,1-.28-.11H2l0,0a1,1,0,0,1-.22-.19s0,0,0,0a1,1,0,0,1-.11-.2l-.07-.15s0,0,0,0,0-.1,0-.15a1.49,1.49,0,0,1,0-.21v0L2.08,4a.93.93,0,0,1,1-.85,1,1,0,0,1,.82,1.12L3.68,6.62a29.81,29.81,0,0,1,31.6-3.71Z"/></svg>